Diabolik-Regular-Léger.ufo
<glyph name="quotedbl" format="2">
  <advance width="270"/>
  <unicode hex="0022"/>
  <outline>
    <contour>
      <point x="110" y="650" type="line"/>
      <point x="110" y="700" type="line"/>
      <point x="80" y="700" type="line"/>
      <point x="80" y="650" type="line"/>
      <point x="60" y="575" type="line"/>
      <point x="90" y="575" type="line"/>
    </contour>
    <contour>
      <point x="190" y="650" type="line"/>
      <point x="190" y="700" type="line"/>
      <point x="160" y="700" type="line"/>
      <point x="160" y="650" type="line"/>
      <point x="140" y="575" type="line"/>
      <point x="170" y="575" type="line"/>
    </contour>
  </outline>
</glyph>
<glyph name="parenleft" format="2">
  <advance width="299"/>
  <unicode hex="0028"/>
  <outline>
    <contour>
      <point x="80" y="330" type="curve" smooth="yes"/>
      <point x="80" y="172.235"/>
      <point x="137.18" y="-33.9511"/>
      <point x="215" y="-130" type="curve"/>
      <point x="239" y="-130" type="line"/>
      <point x="147.161" y="-9.29999"/>
      <point x="100" y="190.89"/>
      <point x="100" y="330" type="curve" smooth="yes"/>
      <point x="100" y="469.11"/>
      <point x="147.161" y="629.3"/>
      <point x="238.961" y="750" type="curve"/>
      <point x="215" y="750" type="line"/>
      <point x="137.6" y="653.7"/>
      <point x="80" y="487.765"/>
    </contour>
  </outline>
</glyph>
<glyph name="comma" format="2">
  <advance width="120"/>
  <unicode hex="002C"/>
  <outline>
    <contour>
      <point x="80" y="0" type="line"/>
      <point x="80" y="50" type="line"/>
      <point x="40" y="50" type="line"/>
      <point x="40" y="0" type="line"/>
      <point x="20" y="-65" type="line"/>
      <point x="60" y="-65" type="line"/>
    </contour>
  </outline>
</glyph>
<glyph name="hyphen" format="2">
  <advance width="310"/>
  <unicode hex="002D"/>
  <outline>
    <contour>
      <point x="50" y="227" type="line"/>
      <point x="50" y="252" type="line"/>
      <point x="250" y="252" type="line"/>
      <point x="250" y="227" type="line"/>
    </contour>
  </outline>
</glyph>
<glyph name="period" format="2">
  <advance width="100"/>
  <unicode hex="002E"/>
  <outline>
    <contour>
      <point x="80" y="0" type="line"/>
      <point x="80" y="40" type="line"/>
      <point x="40" y="40" type="line"/>
      <point x="40" y="0" type="line"/>
    </contour>
  </outline>
</glyph>
<glyph name="one" format="2">
  <advance width="210"/>
  <unicode hex="0031"/>
  <outline>
    <contour>
      <point x="0" y="700" type="line"/>
      <point x="140.286" y="700" type="line"/>
      <point x="170" y="700" type="line"/>
      <point x="170" y="0" type="line"/>
      <point x="150" y="0" type="line"/>
      <point x="150" y="680" type="line"/>
      <point x="130.247" y="680" type="line"/>
      <point x="0" y="680" type="line"/>
    </contour>
  </outline>
</glyph>
<glyph name="two" format="2">
  <advance width="312"/>
  <unicode hex="0032"/>
  <outline>
    <contour>
      <point x="311.107" y="0" type="line"/>
      <point x="71.8378" y="0" type="line"/>
      <point x="30.002" y="0" type="line"/>
      <point x="85.4703" y="144.565"/>
      <point x="258.135" y="533.748"/>
      <point x="258.943" y="626" type="curve" smooth="yes"/>
      <point x="259.581" y="699"/>
      <point x="174.383" y="694.939"/>
      <point x="74" y="670.939" type="curve"/>
      <point x="74" y="690.999" type="line"/>
      <point x="199.958" y="720.999"/>
      <point x="279.953" y="712.999"/>
      <point x="280.007" y="622" type="curve" smooth="yes"/>
      <point x="280.054" y="542.744"/>
      <point x="126.468" y="184.164"/>
      <point x="61" y="19.5986" type="curve"/>
      <point x="72.3033" y="19.5986" type="line"/>
      <point x="311.107" y="19.5986" type="line"/>
    </contour>
  </outline>
</glyph>
<glyph name="six" format="2">
  <advance width="441"/>
  <unicode hex="0036"/>
  <outline>
    <contour>
      <point x="31" y="337" type="line"/>
      <point x="99.6969" y="445.687"/>
      <point x="151.189" y="500"/>
      <point x="226.793" y="500" type="curve" smooth="yes"/>
      <point x="347.055" y="500"/>
      <point x="396" y="364.359"/>
      <point x="396" y="265" type="curve" smooth="yes"/>
      <point x="396" y="175.743"/>
      <point x="367.023" y="-8"/>
      <point x="217" y="-8" type="curve" smooth="yes"/>
      <point x="30.0069" y="-8"/>
      <point x="31" y="249"/>
      <point x="31" y="337" type="curve"/>
      <point x="130" y="700" type="line"/>
      <point x="151.203" y="700" type="line"/>
      <point x="51" y="332" type="line"/>
      <point x="51" y="237"/>
      <point x="56" y="12"/>
      <point x="217" y="12" type="curve" smooth="yes"/>
      <point x="348" y="12"/>
      <point x="375.95" y="177.743"/>
      <point x="375.95" y="265" type="curve" smooth="yes"/>
      <point x="375.95" y="363.349"/>
      <point x="324.298" y="481.905"/>
      <point x="226.788" y="480.316" type="curve" smooth="yes"/>
      <point x="158.054" y="479.195"/>
      <point x="110.408" y="423.035"/>
      <point x="51" y="332" type="curve"/>
    </contour>
  </outline>
</glyph>
<glyph name="eight" format="2">
  <advance width="422"/>
  <unicode hex="0038"/>
  <outline>
    <contour>
      <point x="52.6928" y="549" type="curve" smooth="yes"/>
      <point x="52.6928" y="648.666"/>
      <point x="118.33" y="714.388"/>
      <point x="209" y="713.981" type="curve" smooth="yes"/>
      <point x="303.449" y="713.557"/>
      <point x="369" y="648.75"/>
      <point x="369" y="549" type="curve" smooth="yes"/>
      <point x="369" y="455.734"/>
      <point x="296.201" y="405.174"/>
      <point x="234.419" y="373.787" type="curve"/>
      <point x="291.868" y="344.487"/>
      <point x="391.243" y="268.8"/>
      <point x="391.243" y="168.787" type="curve" smooth="yes"/>
      <point x="391.243" y="68.9478"/>
      <point x="325.643" y="-13"/>
      <point x="214" y="-13" type="curve" smooth="yes"/>
      <point x="96.05" y="-13"/>
      <point x="30.6928" y="68.6657"/>
      <point x="31" y="168.787" type="curve" smooth="yes"/>
      <point x="31.3211" y="273.436"/>
      <point x="129.825" y="344.487"/>
      <point x="187.366" y="373.787" type="curve"/>
      <point x="125.334" y="405.031"/>
      <point x="52.6929" y="455.734"/>
    </contour>
    <contour>
      <point x="72.6812" y="549.011" type="curve" smooth="yes"/>
      <point x="72.6812" y="455.734"/>
      <point x="151.264" y="416.083"/>
      <point x="209.559" y="385.088" type="curve"/>
      <point x="270.429" y="416.083"/>
      <point x="349.012" y="455.734"/>
      <point x="349.012" y="549.011" type="curve" smooth="yes"/>
      <point x="349.012" y="637.855"/>
      <point x="288.432" y="694"/>
      <point x="209" y="694" type="curve" smooth="yes"/>
      <point x="133.26" y="694"/>
      <point x="72.6812" y="637.855"/>
    </contour>
    <contour>
      <point x="50.9884" y="168.776" type="curve" smooth="yes"/>
      <point x="50.9884" y="65.764"/>
      <point x="123.489" y="7"/>
      <point x="214" y="7" type="curve" smooth="yes"/>
      <point x="298.204" y="7"/>
      <point x="370.704" y="63.7642"/>
      <point x="370.704" y="168.776" type="curve" smooth="yes"/>
      <point x="370.704" y="262.054"/>
      <point x="267.549" y="335.142"/>
      <point x="211.557" y="361.627" type="curve"/>
      <point x="153.517" y="337.142"/>
      <point x="50.9884" y="269.053"/>
    </contour>
  </outline>
</glyph>
<glyph name="nine" format="2">
  <advance width="441"/>
  <unicode hex="0039"/>
  <outline>
    <contour>
      <point x="410.007" y="360" type="line"/>
      <point x="341.31" y="251.313"/>
      <point x="289.818" y="197"/>
      <point x="214.214" y="197" type="curve" smooth="yes"/>
      <point x="93.9518" y="197"/>
      <point x="45.0069" y="332.641"/>
      <point x="45.0069" y="432" type="curve" smooth="yes"/>
      <point x="45.0069" y="521.257"/>
      <point x="73.9838" y="705"/>
      <point x="224.007" y="705" type="curve" smooth="yes"/>
      <point x="411" y="705"/>
      <point x="410.007" y="448"/>
      <point x="410.007" y="360" type="curve"/>
      <point x="311.007" y="-3" type="line"/>
      <point x="289.804" y="-3" type="line"/>
      <point x="390.007" y="365" type="line"/>
      <point x="390.007" y="460"/>
      <point x="385.007" y="685"/>
      <point x="224.007" y="685" type="curve" smooth="yes"/>
      <point x="93.0069" y="685"/>
      <point x="65.0569" y="519.257"/>
      <point x="65.0569" y="432" type="curve" smooth="yes"/>
      <point x="65.0569" y="333.651"/>
      <point x="116.709" y="215.095"/>
      <point x="214.219" y="216.684" type="curve" smooth="yes"/>
      <point x="282.953" y="217.805"/>
      <point x="330.599" y="273.965"/>
      <point x="390.007" y="365" type="curve"/>
    </contour>
  </outline>
</glyph>
<glyph name="semicolon" format="2">
  <advance width="110"/>
  <unicode hex="003B"/>
  <outline>
    <contour>
      <point x="80" y="-10" type="line"/>
      <point x="80" y="40" type="line"/>
      <point x="40" y="40" type="line"/>
      <point x="40" y="-10" type="line"/>
      <point x="20" y="-75" type="line"/>
      <point x="60" y="-75" type="line"/>
    </contour>
    <contour>
      <point x="80" y="85" type="line"/>
      <point x="80" y="125" type="line"/>
      <point x="40" y="125" type="line"/>
      <point x="40" y="85" type="line"/>
    </contour>
  </outline>
</glyph>
<glyph name="greater" format="2">
  <advance width="367"/>
  <unicode hex="003E"/>
  <outline>
    <contour>
      <point x="61.0157" y="430" type="line"/>
      <point x="61.0157" y="405.981" type="line"/>
      <point x="286.016" y="275.453" type="line"/>
      <point x="60" y="143.803" type="line"/>
      <point x="60.0157" y="120" type="line"/>
      <point x="326.016" y="275.452" type="line"/>
    </contour>
  </outline>
</glyph>
<glyph name="A" format="2">
  <advance width="529"/>
  <unicode hex="0041"/>
  <outline>
    <contour>
      <point x="258" y="700" type="line"/>
      <point x="20" y="0" type="line"/>
      <point x="40" y="0" type="line"/>
      <point x="112.234" y="211" type="line"/>
      <point x="418.983" y="211" type="line"/>
      <point x="489" y="0" type="line"/>
      <point x="509" y="0" type="line"/>
      <point x="278" y="700" type="line"/>
    </contour>
    <contour>
      <point x="119.081" y="231" type="line"/>
      <point x="268" y="666" type="line"/>
      <point x="412.347" y="231" type="line"/>
    </contour>
  </outline>
</glyph>
<glyph name="C" format="2">
  <advance width="528"/>
  <unicode hex="0043"/>
  <outline>
    <contour>
      <point x="468" y="0" type="line"/>
      <point x="283" y="0" type="line"/>
      <point x="63" y="0"/>
      <point x="45" y="239"/>
      <point x="45" y="389" type="curve"/>
      <point x="123" y="690" type="line"/>
      <point x="241" y="722"/>
      <point x="370" y="722"/>
      <point x="496" y="690" type="curve"/>
      <point x="496" y="669" type="line"/>
      <point x="370" y="702"/>
      <point x="233" y="701"/>
      <point x="140" y="674" type="curve"/>
      <point x="65" y="388" type="line"/>
      <point x="65" y="224"/>
      <point x="90" y="20"/>
      <point x="283" y="20" type="curve"/>
      <point x="468" y="20" type="line"/>
    </contour>
  </outline>
</glyph>
<glyph name="E" format="2">
  <advance width="452"/>
  <unicode hex="0045"/>
  <outline>
    <contour>
      <point x="40" y="700" type="line"/>
      <point x="410" y="700" type="line"/>
      <point x="410" y="680" type="line"/>
      <point x="60" y="680" type="line"/>
      <point x="60" y="637.68" type="line"/>
      <point x="60" y="382" type="line"/>
      <point x="350" y="382" type="line"/>
      <point x="350" y="362" type="line"/>
      <point x="60" y="362" type="line"/>
      <point x="60" y="261.274" type="line"/>
      <point x="60" y="80.7753" type="line"/>
      <point x="60" y="20" type="line"/>
      <point x="420" y="20" type="line"/>
      <point x="420" y="0" type="line"/>
      <point x="40" y="0" type="line"/>
      <point x="40" y="80.7761" type="line"/>
      <point x="40" y="637.681" type="line"/>
    </contour>
  </outline>
</glyph>
<glyph name="F" format="2">
  <advance width="442"/>
  <unicode hex="0046"/>
  <outline>
    <contour>
      <point x="40" y="700" type="line"/>
      <point x="410" y="700" type="line"/>
      <point x="410" y="680" type="line"/>
      <point x="60" y="680" type="line"/>
      <point x="60" y="641.323" type="line"/>
      <point x="60" y="382" type="line"/>
      <point x="350" y="382" type="line"/>
      <point x="350" y="362" type="line"/>
      <point x="60" y="362" type="line"/>
      <point x="60" y="259.897" type="line"/>
      <point x="60" y="0" type="line"/>
      <point x="40" y="0" type="line"/>
      <point x="40" y="641.322" type="line"/>
    </contour>
  </outline>
</glyph>
<glyph name="G" format="2">
  <advance width="565"/>
  <unicode hex="0047"/>
  <outline>
    <contour>
      <point x="468" y="0" type="line"/>
      <point x="283" y="0" type="line" smooth="yes"/>
      <point x="63" y="0"/>
      <point x="45" y="239"/>
      <point x="45" y="389" type="curve"/>
      <point x="123" y="700" type="line"/>
      <point x="241" y="741"/>
      <point x="370" y="741"/>
      <point x="496" y="700" type="curve"/>
      <point x="496" y="679" type="line"/>
      <point x="370" y="721"/>
      <point x="233" y="720"/>
      <point x="140" y="684" type="curve"/>
      <point x="65" y="388" type="line"/>
      <point x="65" y="224"/>
      <point x="90" y="20"/>
      <point x="283" y="20" type="curve" smooth="yes"/>
      <point x="451" y="20" type="line"/>
      <point x="491.805" y="258.998" type="line"/>
      <point x="507" y="348" type="line"/>
      <point x="417" y="368"/>
      <point x="342" y="368"/>
      <point x="248" y="347" type="curve"/>
      <point x="248" y="368" type="line"/>
      <point x="354" y="389"/>
      <point x="412" y="390"/>
      <point x="530" y="364" type="curve"/>
      <point x="512.115" y="258.999" type="line"/>
    </contour>
  </outline>
</glyph>
<glyph name="L" format="2">
  <advance width="440"/>
  <unicode hex="004C"/>
  <outline>
    <contour>
      <point x="40" y="700" type="line"/>
      <point x="60" y="700" type="line"/>
      <point x="60" y="79.0536" type="line"/>
      <point x="60" y="20" type="line"/>
      <point x="420" y="20" type="line"/>
      <point x="420" y="0" type="line"/>
      <point x="40" y="0" type="line"/>
      <point x="40" y="79.054" type="line"/>
    </contour>
  </outline>
</glyph>
<glyph name="N" format="2">
  <advance width="516"/>
  <unicode hex="004E"/>
  <outline>
    <contour>
      <point x="461" y="700" type="line"/>
      <point x="481" y="700" type="line"/>
      <point x="481" y="0" type="line"/>
      <point x="461" y="0" type="line"/>
      <point x="253.238" y="338.252" type="line"/>
      <point x="55" y="661" type="line"/>
      <point x="55" y="0" type="line"/>
      <point x="35" y="0" type="line"/>
      <point x="35" y="700" type="line"/>
      <point x="55" y="700" type="line"/>
      <point x="270.63" y="350" type="line"/>
      <point x="461" y="41" type="line"/>
    </contour>
  </outline>
</glyph>
<glyph name="O" format="2">
  <advance width="586"/>
  <unicode hex="004F"/>
  <outline>
    <contour>
      <point x="127" y="704" type="line"/>
      <point x="306" y="704" type="line"/>
      <point x="522" y="704"/>
      <point x="541" y="450"/>
      <point x="541" y="303" type="curve"/>
      <point x="461" y="-3" type="line"/>
      <point x="281" y="-3" type="line"/>
      <point x="64" y="-3"/>
      <point x="45" y="251"/>
      <point x="45" y="399" type="curve"/>
    </contour>
    <contour>
      <point x="142" y="684" type="line"/>
      <point x="66" y="400" type="line"/>
      <point x="66" y="238"/>
      <point x="88" y="17"/>
      <point x="281" y="17" type="curve"/>
      <point x="445" y="17" type="line"/>
      <point x="520" y="301" type="line"/>
      <point x="520" y="462"/>
      <point x="498" y="684"/>
      <point x="306" y="684" type="curve"/>
    </contour>
  </outline>
</glyph>
<glyph name="Q" format="2">
  <advance width="698"/>
  <unicode hex="0051"/>
  <outline>
    <contour>
      <point x="127" y="704" type="line"/>
      <point x="306" y="704" type="line"/>
      <point x="522" y="704"/>
      <point x="541" y="450"/>
      <point x="541" y="303" type="curve"/>
      <point x="461" y="-3" type="line"/>
      <point x="281" y="-3" type="line"/>
      <point x="64" y="-3"/>
      <point x="45" y="251"/>
      <point x="45" y="399" type="curve"/>
    </contour>
    <contour>
      <point x="142" y="684" type="line"/>
      <point x="66" y="400" type="line"/>
      <point x="66" y="238"/>
      <point x="88" y="17"/>
      <point x="281" y="17" type="curve"/>
      <point x="445" y="17" type="line"/>
      <point x="520" y="301" type="line"/>
      <point x="520" y="462"/>
      <point x="498" y="684"/>
      <point x="306" y="684" type="curve"/>
    </contour>
    <contour>
      <point x="369" y="301" type="line"/>
      <point x="393" y="301" type="line"/>
      <point x="567" y="20" type="line"/>
      <point x="653" y="20" type="line"/>
      <point x="653" y="0" type="line"/>
      <point x="556" y="0" type="line"/>
    </contour>
  </outline>
</glyph>
<glyph name="U" format="2">
  <advance width="531"/>
  <unicode hex="0055"/>
  <outline>
    <contour>
      <point x="496" y="700" type="line"/>
      <point x="496" y="303" type="line"/>
      <point x="416" y="-3" type="line"/>
      <point x="276" y="-3" type="line"/>
      <point x="59" y="-3"/>
      <point x="40" y="251"/>
      <point x="40" y="399" type="curve"/>
      <point x="40" y="700" type="line"/>
      <point x="61" y="700" type="line"/>
      <point x="61" y="400" type="line"/>
      <point x="61" y="238"/>
      <point x="83" y="17"/>
      <point x="276" y="17" type="curve"/>
      <point x="400" y="17" type="line"/>
      <point x="475" y="301" type="line"/>
      <point x="475" y="700" type="line"/>
    </contour>
  </outline>
</glyph>
<glyph name="V" format="2">
  <advance width="529"/>
  <unicode hex="0056"/>
  <outline>
    <contour>
      <point x="258" y="0" type="line"/>
      <point x="278" y="0" type="line"/>
      <point x="509" y="700" type="line"/>
      <point x="489" y="700" type="line"/>
      <point x="268" y="34" type="line"/>
      <point x="40" y="700" type="line"/>
      <point x="20" y="700" type="line"/>
    </contour>
  </outline>
</glyph>
<glyph name="X" format="2">
  <advance width="523"/>
  <unicode hex="0058"/>
  <outline>
    <contour>
      <point x="479" y="0" type="line"/>
      <point x="503" y="0" type="line"/>
      <point x="272.541" y="352.229" type="line"/>
      <point x="487" y="700" type="line"/>
      <point x="463" y="700" type="line"/>
      <point x="260.327" y="370.898" type="line"/>
      <point x="45" y="700" type="line"/>
      <point x="20" y="700" type="line"/>
      <point x="244.321" y="357.898" type="line"/>
      <point x="24" y="0" type="line"/>
      <point x="48" y="0" type="line"/>
      <point x="256.544" y="339.258" type="line"/>
    </contour>
  </outline>
</glyph>
<glyph name="Y" format="2">
  <advance width="463"/>
  <unicode hex="0059"/>
  <outline>
    <contour>
      <point x="130" y="0" type="line"/>
      <point x="152" y="0" type="line"/>
      <point x="443" y="700" type="line"/>
      <point x="421" y="700" type="line"/>
      <point x="236.708" y="256.687" type="line"/>
      <point x="43" y="700" type="line"/>
      <point x="20" y="700" type="line"/>
      <point x="225.141" y="228.862" type="line"/>
    </contour>
  </outline>
</glyph>
<glyph name="bracketleft" format="2">
  <advance width="270"/>
  <unicode hex="005B"/>
  <outline>
    <contour>
      <point x="80" y="820" type="line"/>
      <point x="80" y="769.864" type="line"/>
      <point x="80" y="-36.6648" type="line"/>
      <point x="80" y="-87" type="line"/>
      <point x="260" y="-87" type="line"/>
      <point x="260" y="-67" type="line"/>
      <point x="100" y="-67" type="line"/>
      <point x="100" y="-37.2449" type="line"/>
      <point x="100" y="769.824" type="line"/>
      <point x="100" y="800" type="line"/>
      <point x="260" y="800" type="line"/>
      <point x="260" y="820" type="line"/>
    </contour>
  </outline>
</glyph>
<glyph name="backslash" format="2">
  <advance width="361"/>
  <unicode hex="005C"/>
  <outline>
    <contour>
      <point x="280.348" y="0" type="line"/>
      <point x="259.348" y="0" type="line"/>
      <point x="120" y="700" type="line"/>
      <point x="141" y="700" type="line"/>
    </contour>
  </outline>
</glyph>
<glyph name="underscore" format="2">
  <advance width="280"/>
  <unicode hex="005F"/>
  <outline>
    <contour>
      <point x="30" y="-101" type="line"/>
      <point x="30" y="-76" type="line"/>
      <point x="230" y="-76" type="line"/>
      <point x="230" y="-101" type="line"/>
    </contour>
  </outline>
</glyph>
<glyph name="grave" format="2">
  <advance width="160"/>
  <unicode hex="0060"/>
  <outline>
    <contour>
      <point x="40" y="633" type="line"/>
      <point x="86" y="565" type="line"/>
      <point x="120" y="565" type="line"/>
      <point x="70" y="640" type="line"/>
      <point x="70" y="700" type="line"/>
      <point x="40" y="700" type="line"/>
    </contour>
  </outline>
</glyph>
<glyph name="b" format="2">
  <advance width="508"/>
  <unicode hex="0062"/>
  <outline>
    <contour>
      <point x="30" y="750" type="line"/>
      <point x="118" y="0" type="line"/>
      <point x="138" y="0" type="line"/>
      <point x="195" y="482" type="line"/>
      <point x="251" y="501"/>
      <point x="340" y="501"/>
      <point x="402" y="482" type="curve"/>
      <point x="456" y="284" type="line"/>
      <point x="454" y="172"/>
      <point x="441" y="20"/>
      <point x="306" y="20" type="curve" smooth="yes"/>
      <point x="205" y="20"/>
      <point x="171" y="133"/>
      <point x="151" y="213" type="curve"/>
      <point x="149" y="157" type="line"/>
      <point x="160" y="106"/>
      <point x="200" y="0"/>
      <point x="306" y="0" type="curve" smooth="yes"/>
      <point x="464" y="0"/>
      <point x="475" y="177"/>
      <point x="476" y="284" type="curve"/>
      <point x="418" y="500" type="line"/>
      <point x="338" y="522"/>
      <point x="253" y="522"/>
      <point x="177" y="500" type="curve"/>
      <point x="128" y="82" type="line"/>
      <point x="50" y="750" type="line"/>
    </contour>
  </outline>
</glyph>
<glyph name="c" format="2">
  <advance width="349"/>
  <unicode hex="0063"/>
  <outline>
    <contour>
      <point x="304" y="0" type="line"/>
      <point x="260.44" y="0"/>
      <point x="245.56" y="0"/>
      <point x="202" y="0" type="curve"/>
      <point x="45" y="0"/>
      <point x="32" y="171"/>
      <point x="32" y="278" type="curve"/>
      <point x="88" y="500" type="line"/>
      <point x="172" y="531"/>
      <point x="236" y="530"/>
      <point x="324" y="500" type="curve"/>
      <point x="324" y="480" type="line"/>
      <point x="236" y="509"/>
      <point x="171" y="510"/>
      <point x="105" y="484" type="curve"/>
      <point x="52" y="278" type="line"/>
      <point x="52" y="167"/>
      <point x="67" y="20"/>
      <point x="202" y="20" type="curve"/>
      <point x="245.56" y="20"/>
      <point x="260.44" y="20"/>
      <point x="304" y="20" type="curve"/>
    </contour>
  </outline>
</glyph>
<glyph name="d" format="2">
  <advance width="508"/>
  <unicode hex="0064"/>
  <outline>
    <contour>
      <point x="478" y="750" type="line"/>
      <point x="458" y="750" type="line"/>
      <point x="380" y="82" type="line"/>
      <point x="331" y="500" type="line"/>
      <point x="255" y="522"/>
      <point x="170" y="522"/>
      <point x="90" y="500" type="curve"/>
      <point x="32" y="284" type="line"/>
      <point x="33" y="177"/>
      <point x="44" y="0"/>
      <point x="202" y="0" type="curve" smooth="yes"/>
      <point x="308" y="0"/>
      <point x="348" y="106"/>
      <point x="359" y="157" type="curve"/>
      <point x="357" y="213" type="line"/>
      <point x="337" y="133"/>
      <point x="303" y="20"/>
      <point x="202" y="20" type="curve" smooth="yes"/>
      <point x="67" y="20"/>
      <point x="54" y="172"/>
      <point x="52" y="284" type="curve"/>
      <point x="106" y="482" type="line"/>
      <point x="168" y="501"/>
      <point x="257" y="501"/>
      <point x="313" y="482" type="curve"/>
      <point x="370" y="0" type="line"/>
      <point x="390" y="0" type="line"/>
    </contour>
  </outline>
</glyph>
<glyph name="e" format="2">
  <advance width="385"/>
  <unicode hex="0065"/>
  <outline>
    <contour>
      <point x="324" y="0" type="line"/>
      <point x="192" y="0" type="line"/>
      <point x="45" y="0"/>
      <point x="32" y="171"/>
      <point x="32" y="278" type="curve"/>
      <point x="89" y="503" type="line"/>
      <point x="192" y="503" type="line"/>
      <point x="339" y="503"/>
      <point x="360" y="334"/>
      <point x="360" y="278" type="curve"/>
      <point x="360" y="258" type="line"/>
      <point x="45" y="258" type="line"/>
      <point x="45" y="278" type="line"/>
      <point x="340" y="278" type="line"/>
      <point x="340" y="340"/>
      <point x="317" y="483"/>
      <point x="192" y="483" type="curve"/>
      <point x="105" y="483" type="line"/>
      <point x="52" y="278" type="line"/>
      <point x="52" y="167"/>
      <point x="67" y="20"/>
      <point x="192" y="20" type="curve"/>
      <point x="324" y="20" type="line"/>
    </contour>
  </outline>
</glyph>
<glyph name="f" format="2">
  <advance width="302"/>
  <unicode hex="0066"/>
  <outline>
    <contour>
      <point x="68" y="0" type="line"/>
      <point x="88" y="0" type="line"/>
      <point x="54.3683" y="480.453" type="line"/>
      <point x="102.327" y="496.676"/>
      <point x="129.41" y="502.002"/>
      <point x="165.95" y="502.25" type="curve" smooth="yes"/>
      <point x="198.55" y="502.45"/>
      <point x="224.75" y="497.7"/>
      <point x="277" y="482" type="curve"/>
      <point x="277" y="502" type="line"/>
      <point x="238.55" y="515.25"/>
      <point x="202.55" y="521.8"/>
      <point x="165.95" y="522.25" type="curve" smooth="yes"/>
      <point x="133.1" y="522.65"/>
      <point x="92.85" y="514.7"/>
      <point x="53" y="500" type="curve"/>
      <point x="94.5227" y="735.924" type="line"/>
      <point x="129.967" y="746.636"/>
      <point x="158.478" y="750.892"/>
      <point x="189.15" y="750.25" type="curve" smooth="yes"/>
      <point x="223.7" y="749.45"/>
      <point x="257" y="743.5"/>
      <point x="302" y="730" type="curve"/>
      <point x="302" y="750" type="line"/>
      <point x="261.8" y="763.85"/>
      <point x="226.45" y="770.1"/>
      <point x="187.65" y="770.25" type="curve" smooth="yes"/>
      <point x="148.7" y="770.4"/>
      <point x="114.45" y="764.2"/>
      <point x="76" y="750" type="curve"/>
      <point x="33" y="500" type="line"/>
    </contour>
  </outline>
</glyph>
<glyph name="g" format="2">
  <advance width="479"/>
  <unicode hex="0067"/>
  <outline>
    <contour>
      <point x="449" y="500" type="line"/>
      <point x="429" y="500" type="line"/>
      <point x="380" y="82" type="line"/>
      <point x="331" y="500" type="line"/>
      <point x="255" y="522"/>
      <point x="170" y="522"/>
      <point x="90" y="500" type="curve"/>
      <point x="32" y="284" type="line"/>
      <point x="33" y="177"/>
      <point x="44" y="0"/>
      <point x="202" y="0" type="curve" smooth="yes"/>
      <point x="308" y="0"/>
      <point x="348" y="106"/>
      <point x="359" y="157" type="curve"/>
      <point x="357" y="213" type="line"/>
      <point x="337" y="133"/>
      <point x="303" y="20"/>
      <point x="202" y="20" type="curve" smooth="yes"/>
      <point x="67" y="20"/>
      <point x="54" y="172"/>
      <point x="52" y="284" type="curve"/>
      <point x="106" y="482" type="line"/>
      <point x="168" y="501"/>
      <point x="257" y="501"/>
      <point x="313" y="482" type="curve"/>
      <point x="369" y="0" type="line"/>
      <point x="390" y="0" type="line"/>
    </contour>
    <contour>
      <point x="301" y="-227" type="curve"/>
      <point x="390" y="0" type="line"/>
      <point x="369" y="0" type="line"/>
      <point x="286" y="-211" type="line"/>
      <point x="220" y="-236"/>
      <point x="115" y="-234"/>
      <point x="35" y="-207" type="curve"/>
      <point x="35" y="-227" type="line"/>
      <point x="125" y="-258"/>
      <point x="217" y="-258"/>
    </contour>
  </outline>
</glyph>
<glyph name="h" format="2">
  <advance width="477"/>
  <unicode hex="0068"/>
  <outline>
    <contour>
      <point x="33" y="750" type="line"/>
      <point x="120" y="0" type="line"/>
      <point x="140" y="0" type="line"/>
      <point x="198" y="484" type="line"/>
      <point x="264" y="509"/>
      <point x="354" y="509"/>
      <point x="423" y="485" type="curve"/>
      <point x="388" y="284" type="line"/>
      <point x="408" y="0" type="line"/>
      <point x="428" y="0" type="line"/>
      <point x="408" y="284" type="line"/>
      <point x="447" y="500" type="line"/>
      <point x="357" y="531"/>
      <point x="265" y="531"/>
      <point x="181" y="500" type="curve"/>
      <point x="130" y="83" type="line"/>
      <point x="53" y="750" type="line"/>
    </contour>
  </outline>
</glyph>
<glyph name="l" format="2">
  <advance width="122"/>
  <unicode hex="006C"/>
  <outline>
    <contour>
      <point x="92" y="750" type="line"/>
      <point x="79.13" y="678.72"/>
      <point x="65.87" y="605.28"/>
      <point x="53" y="534" type="curve"/>
      <point x="65.54" y="357.78"/>
      <point x="78.46" y="176.22"/>
      <point x="91" y="0" type="curve"/>
      <point x="71" y="0" type="line"/>
      <point x="58.46" y="176.22"/>
      <point x="45.54" y="357.78"/>
      <point x="33" y="534" type="curve"/>
      <point x="45.54" y="605.28"/>
      <point x="58.46" y="678.72"/>
      <point x="71" y="750" type="curve"/>
    </contour>
  </outline>
</glyph>
<glyph name="m" format="2">
  <advance width="691"/>
  <unicode hex="006D"/>
  <outline>
    <contour>
      <point x="30" y="500" type="line"/>
      <point x="88" y="0" type="line"/>
      <point x="108" y="0" type="line"/>
      <point x="166" y="484" type="line"/>
      <point x="199.029" y="496.511"/>
      <point x="237.328" y="502.673"/>
      <point x="275.784" y="502.94" type="curve" smooth="yes"/>
      <point x="315.96" y="503.22"/>
      <point x="356.308" y="497.067"/>
      <point x="391" y="485" type="curve"/>
      <point x="356" y="284" type="line"/>
      <point x="376" y="0" type="line"/>
      <point x="396" y="0" type="line"/>
      <point x="376" y="284" type="line"/>
      <point x="412" y="484" type="line"/>
      <point x="444.445" y="496.276"/>
      <point x="482.288" y="502.717"/>
      <point x="520.375" y="503.29" type="curve" smooth="yes"/>
      <point x="561.069" y="503.903"/>
      <point x="602.04" y="497.819"/>
      <point x="637" y="485" type="curve"/>
      <point x="602" y="284" type="line"/>
      <point x="622" y="0" type="line"/>
      <point x="642" y="0" type="line"/>
      <point x="622" y="284" type="line"/>
      <point x="634.87" y="355.28"/>
      <point x="648.13" y="428.72"/>
      <point x="661" y="500" type="curve"/>
      <point x="574" y="530"/>
      <point x="486" y="531"/>
      <point x="405" y="503" type="curve"/>
      <point x="362.716" y="516.609"/>
      <point x="319.216" y="523.56"/>
      <point x="275.835" y="523.183" type="curve" smooth="yes"/>
      <point x="233.012" y="522.811"/>
      <point x="190.306" y="515.298"/>
      <point x="149" y="500" type="curve"/>
      <point x="98" y="83" type="line"/>
      <point x="50" y="500" type="line"/>
    </contour>
  </outline>
</glyph>
<glyph name="n" format="2">
  <advance width="445"/>
  <unicode hex="006E"/>
  <outline>
    <contour>
      <point x="30" y="500" type="line"/>
      <point x="88" y="0" type="line"/>
      <point x="108" y="0" type="line"/>
      <point x="166" y="484" type="line"/>
      <point x="232" y="509"/>
      <point x="322" y="509"/>
      <point x="391" y="485" type="curve"/>
      <point x="356" y="284" type="line"/>
      <point x="376" y="0" type="line"/>
      <point x="396" y="0" type="line"/>
      <point x="376" y="284" type="line"/>
      <point x="415" y="500" type="line"/>
      <point x="325" y="531"/>
      <point x="233" y="531"/>
      <point x="149" y="500" type="curve"/>
      <point x="98" y="83" type="line"/>
      <point x="50" y="500" type="line"/>
    </contour>
  </outline>
</glyph>
<glyph name="o" format="2">
  <advance width="426"/>
  <unicode hex="006F"/>
  <outline>
    <contour>
      <point x="91" y="517" type="line"/>
      <point x="223" y="517" type="line"/>
      <point x="381" y="517"/>
      <point x="394" y="331"/>
      <point x="394" y="224" type="curve"/>
      <point x="336" y="0" type="line"/>
      <point x="204" y="0" type="line"/>
      <point x="45" y="0"/>
      <point x="32" y="186"/>
      <point x="32" y="294" type="curve"/>
    </contour>
    <contour>
      <point x="106" y="497" type="line"/>
      <point x="52" y="294" type="line"/>
      <point x="52" y="180"/>
      <point x="68" y="20"/>
      <point x="204" y="20" type="curve"/>
      <point x="320" y="20" type="line"/>
      <point x="374" y="224" type="line"/>
      <point x="374" y="337"/>
      <point x="358" y="497"/>
      <point x="223" y="497" type="curve"/>
    </contour>
  </outline>
</glyph>
<glyph name="p" format="2">
  <advance width="482"/>
  <unicode hex="0070"/>
  <outline>
    <contour>
      <point x="33" y="500" type="line"/>
      <point x="63" y="-250" type="line"/>
      <point x="83" y="-250" type="line"/>
      <point x="169" y="482" type="line"/>
      <point x="225" y="501"/>
      <point x="314" y="501"/>
      <point x="376" y="482" type="curve"/>
      <point x="430" y="284" type="line"/>
      <point x="428" y="172"/>
      <point x="415" y="20"/>
      <point x="280" y="20" type="curve" smooth="yes"/>
      <point x="179" y="20"/>
      <point x="145" y="133"/>
      <point x="125" y="213" type="curve"/>
      <point x="123" y="157" type="line"/>
      <point x="134" y="106"/>
      <point x="174" y="0"/>
      <point x="280" y="0" type="curve" smooth="yes"/>
      <point x="438" y="0"/>
      <point x="449" y="177"/>
      <point x="450" y="284" type="curve"/>
      <point x="392" y="500" type="line"/>
      <point x="312" y="522"/>
      <point x="227" y="522"/>
      <point x="151" y="500" type="curve"/>
      <point x="78" y="-118" type="line"/>
      <point x="53" y="500" type="line"/>
    </contour>
  </outline>
</glyph>
<glyph name="t" format="2">
  <advance width="259"/>
  <unicode hex="0074"/>
  <outline>
    <contour>
      <point x="89" y="700" type="line"/>
      <point x="53" y="500" type="line"/>
      <point x="88" y="0" type="line"/>
      <point x="68" y="0" type="line"/>
      <point x="33" y="500" type="line"/>
      <point x="68" y="700" type="line"/>
    </contour>
    <contour>
      <point x="53" y="500" type="line"/>
      <point x="96.4948" y="516.052"/>
      <point x="124.141" y="522.128"/>
      <point x="158.531" y="521.221" type="curve" smooth="yes"/>
      <point x="185.735" y="520.503"/>
      <point x="225.602" y="514.948"/>
      <point x="269" y="500" type="curve"/>
      <point x="269" y="480" type="line"/>
      <point x="220.885" y="494.435"/>
      <point x="199.246" y="500.11"/>
      <point x="158.53" y="501.148" type="curve" smooth="yes"/>
      <point x="124.62" y="502.013"/>
      <point x="101.772" y="496.603"/>
      <point x="53" y="480" type="curve"/>
    </contour>
  </outline>
</glyph>
<glyph name="braceright" format="2">
  <advance width="330"/>
  <unicode hex="007D"/>
  <outline>
    <contour>
      <point x="190" y="770" type="line"/>
      <point x="189.623" y="820" type="line"/>
      <point x="10" y="820" type="line"/>
      <point x="10" y="800" type="line"/>
      <point x="169.716" y="800" type="line"/>
      <point x="170" y="770" type="line"/>
      <point x="170" y="436.872" type="line"/>
      <point x="250" y="368.421" type="line"/>
      <point x="250" y="365.881" type="line"/>
      <point x="170" y="297.385" type="line"/>
      <point x="170" y="-37" type="line"/>
      <point x="169.901" y="-67" type="line"/>
      <point x="10" y="-67" type="line"/>
      <point x="10" y="-87" type="line"/>
      <point x="190.216" y="-87" type="line"/>
      <point x="190" y="-37" type="line"/>
      <point x="190" y="287.213" type="line"/>
      <point x="270" y="356.729" type="line"/>
      <point x="270" y="376.642" type="line"/>
      <point x="190" y="447.309" type="line"/>
    </contour>
  </outline>
</glyph>
<glyph name="exclamdown" format="2">
  <advance width="220"/>
  <unicode hex="00A1"/>
  <outline>
    <contour>
      <point x="100" y="500" type="line"/>
      <point x="100" y="460" type="line"/>
      <point x="140" y="460" type="line"/>
      <point x="140" y="500" type="line"/>
    </contour>
    <contour>
      <point x="130" y="370" type="line"/>
      <point x="130" y="-200" type="line"/>
      <point x="110" y="-200" type="line"/>
      <point x="110" y="370" type="line"/>
    </contour>
  </outline>
</glyph>
<glyph name="dieresis" format="2">
  <advance width="170"/>
  <unicode hex="00A8"/>
  <outline>
    <contour>
      <point x="140" y="710" type="line"/>
      <point x="140" y="750" type="line"/>
      <point x="100" y="750" type="line"/>
      <point x="100" y="710" type="line"/>
    </contour>
    <contour>
      <point x="70" y="710" type="line"/>
      <point x="70" y="750" type="line"/>
      <point x="30" y="750" type="line"/>
      <point x="30" y="710" type="line"/>
    </contour>
  </outline>
</glyph>
<glyph name="guillemotleft" format="2">
  <advance width="428"/>
  <unicode hex="00AB"/>
  <outline>
    <contour>
      <point x="213" y="460" type="line"/>
      <point x="40" y="265.452" type="line"/>
      <point x="213" y="70" type="line"/>
      <point x="240" y="70" type="line"/>
      <point x="67" y="265.453" type="line"/>
      <point x="240" y="460" type="line"/>
    </contour>
    <contour>
      <point x="341" y="460" type="line"/>
      <point x="168" y="265.452" type="line"/>
      <point x="341" y="70" type="line"/>
      <point x="368" y="70" type="line"/>
      <point x="195" y="265.453" type="line"/>
      <point x="368" y="460" type="line"/>
    </contour>
  </outline>
</glyph>
<glyph name="degree" format="2">
  <advance width="311"/>
  <unicode hex="00B0"/>
  <outline>
    <contour>
      <point x="20" y="624.629" type="curve" smooth="yes"/>
      <point x="20" y="556.308"/>
      <point x="75.7234" y="500"/>
      <point x="145.001" y="500" type="curve" smooth="yes"/>
      <point x="214.279" y="500"/>
      <point x="270.002" y="556.308"/>
      <point x="270.002" y="624.629" type="curve" smooth="yes"/>
      <point x="270.002" y="693.701"/>
      <point x="214.279" y="750.009"/>
      <point x="145.001" y="750.009" type="curve" smooth="yes"/>
      <point x="75.7234" y="750.009"/>
      <point x="20" y="693.701"/>
    </contour>
    <contour>
      <point x="40" y="624.688" type="curve" smooth="yes"/>
      <point x="40" y="682.709"/>
      <point x="86.8077" y="730.008"/>
      <point x="145" y="730.008" type="curve" smooth="yes"/>
      <point x="203.193" y="730.008"/>
      <point x="250" y="682.709"/>
      <point x="250" y="624.688" type="curve" smooth="yes"/>
      <point x="250" y="567.299"/>
      <point x="203.192" y="520"/>
      <point x="145" y="520" type="curve" smooth="yes"/>
      <point x="86.8067" y="520"/>
      <point x="40" y="567.299"/>
    </contour>
  </outline>
</glyph>
<glyph name="plusminus" format="2">
  <advance width="511"/>
  <unicode hex="00B1"/>
  <outline>
    <contour>
      <point x="105" y="26" type="line"/>
      <point x="105" y="51" type="line"/>
      <point x="405" y="51" type="line"/>
      <point x="405" y="26" type="line"/>
    </contour>
    <contour>
      <point x="265" y="101" type="line"/>
      <point x="245" y="101" type="line"/>
      <point x="245" y="500.934" type="line"/>
      <point x="265" y="500.934" type="line"/>
    </contour>
    <contour>
      <point x="80.5" y="301" type="line"/>
      <point x="80.5" y="321" type="line"/>
      <point x="430.442" y="321" type="line"/>
      <point x="430.442" y="301" type="line"/>
    </contour>
  </outline>
</glyph>
<glyph name="acute" format="2">
  <advance width="160"/>
  <unicode hex="00B4"/>
  <outline>
    <contour>
      <point x="120" y="633" type="line"/>
      <point x="120" y="700" type="line"/>
      <point x="90" y="700" type="line"/>
      <point x="90" y="640" type="line"/>
      <point x="40" y="565" type="line"/>
      <point x="74" y="565" type="line"/>
    </contour>
  </outline>
</glyph>
<glyph name="guillemotright" format="2">
  <advance width="428"/>
  <unicode hex="00BB"/>
  <outline>
    <contour>
      <point x="215" y="460" type="line"/>
      <point x="188" y="460" type="line"/>
      <point x="361" y="265.453" type="line"/>
      <point x="188" y="70" type="line"/>
      <point x="215" y="70" type="line"/>
      <point x="388" y="265.452" type="line"/>
    </contour>
    <contour>
      <point x="87" y="460" type="line"/>
      <point x="60" y="460" type="line"/>
      <point x="233" y="265.453" type="line"/>
      <point x="60" y="70" type="line"/>
      <point x="87" y="70" type="line"/>
      <point x="260" y="265.452" type="line"/>
    </contour>
  </outline>
</glyph>
<glyph name="questiondown" format="2">
  <advance width="421"/>
  <unicode hex="00BF"/>
  <outline>
    <contour>
      <point x="290.054" y="500" type="line"/>
      <point x="290.054" y="460" type="line"/>
      <point x="330.054" y="460" type="line"/>
      <point x="330.054" y="500" type="line"/>
    </contour>
    <contour>
      <point x="320.054" y="370" type="line"/>
      <point x="320.054" y="212.401" type="line"/>
      <point x="266.254" y="145.339"/>
      <point x="121.919" y="-25.7481"/>
      <point x="121.024" y="-123" type="curve" smooth="yes"/>
      <point x="120.445" y="-186.001"/>
      <point x="223.671" y="-179.94"/>
      <point x="340.054" y="-179.94" type="curve"/>
      <point x="340.054" y="-200" type="line"/>
      <point x="170.097" y="-200"/>
      <point x="100.096" y="-200"/>
      <point x="100.053" y="-119" type="curve" smooth="yes"/>
      <point x="100" y="-19.7445"/>
      <point x="231.254" y="134.338"/>
      <point x="300.054" y="221.401" type="curve"/>
      <point x="300.054" y="369.999" type="line"/>
    </contour>
  </outline>
</glyph>
<glyph name="AE" format="2">
  <advance width="901"/>
  <unicode hex="00C6"/>
  <outline>
    <contour>
      <point x="489" y="700" type="line"/>
      <point x="489" y="637.681" type="line"/>
      <point x="489" y="80.7761" type="line"/>
      <point x="489" y="0" type="line"/>
      <point x="869" y="0" type="line"/>
      <point x="869" y="20" type="line"/>
      <point x="509" y="20" type="line"/>
      <point x="509" y="80.7753" type="line"/>
      <point x="509" y="261.274" type="line"/>
      <point x="509" y="362" type="line"/>
      <point x="799" y="362" type="line"/>
      <point x="799" y="382" type="line"/>
      <point x="509" y="382" type="line"/>
      <point x="509" y="637.68" type="line"/>
      <point x="509" y="680" type="line"/>
      <point x="859" y="680" type="line"/>
      <point x="859" y="700" type="line"/>
    </contour>
    <contour>
      <point x="489" y="700" type="line"/>
      <point x="20" y="0" type="line"/>
      <point x="45" y="0" type="line"/>
      <point x="187.25" y="211" type="line"/>
      <point x="488.983" y="211" type="line"/>
      <point x="489" y="0" type="line"/>
      <point x="509" y="0" type="line"/>
      <point x="509" y="636.229" type="line"/>
      <point x="509" y="700" type="line"/>
    </contour>
    <contour>
      <point x="200.1" y="231" type="line"/>
      <point x="489" y="663" type="line"/>
      <point x="489.022" y="636.23" type="line"/>
      <point x="489.347" y="231" type="line"/>
    </contour>
  </outline>
</glyph>
<glyph name="Eth" format="2">
  <advance width="576"/>
  <unicode hex="00D0"/>
  <outline>
    <component base="D" xOffset="40"/>
    <contour>
      <point x="40" y="347" type="line"/>
      <point x="40" y="367" type="line"/>
      <point x="240" y="367" type="line"/>
      <point x="240" y="347" type="line"/>
    </contour>
  </outline>
</glyph>
<glyph name="multiply" format="2">
  <advance width="424"/>
  <unicode hex="00D7"/>
  <outline>
    <contour>
      <point x="342.961" y="131.462" type="line"/>
      <point x="328.819" y="117.32" type="line"/>
      <point x="81.3723" y="364.766" type="line"/>
      <point x="95.5144" y="378.909" type="line"/>
    </contour>
    <contour>
      <point x="95.1188" y="118.38" type="line"/>
      <point x="80.9767" y="132.522" type="line"/>
      <point x="329.132" y="380.677" type="line"/>
      <point x="343.274" y="366.535" type="line"/>
    </contour>
  </outline>
</glyph>
<glyph name="Thorn" format="2">
  <advance width="496"/>
  <unicode hex="00DE"/>
  <outline>
    <contour>
      <point x="291" y="174" type="curve" smooth="yes"/>
      <point x="60" y="174" type="line"/>
      <point x="60" y="0" type="line"/>
      <point x="40" y="0" type="line"/>
      <point x="40" y="700" type="line"/>
      <point x="60" y="700" type="line"/>
      <point x="60" y="540" type="line"/>
      <point x="363" y="540" type="line"/>
      <point x="451" y="370" type="line"/>
      <point x="451" y="263"/>
      <point x="420" y="174"/>
    </contour>
    <contour>
      <point x="60" y="194" type="line"/>
      <point x="292" y="194" type="line"/>
      <point x="369" y="195"/>
      <point x="430" y="237"/>
      <point x="430" y="366" type="curve"/>
      <point x="352" y="520" type="line"/>
      <point x="60" y="520" type="line"/>
    </contour>
  </outline>
</glyph>
<glyph name="ae" format="2">
  <advance width="736"/>
  <unicode hex="00E6"/>
  <outline>
    <contour>
      <point x="427" y="503" type="line"/>
      <point x="409" y="503" type="line"/>
      <point x="360" y="82" type="line"/>
      <point x="311" y="500" type="line"/>
      <point x="235" y="522"/>
      <point x="170" y="522"/>
      <point x="90" y="500" type="curve"/>
      <point x="32" y="284" type="line"/>
      <point x="33" y="177"/>
      <point x="44" y="0"/>
      <point x="192" y="0" type="curve" smooth="yes"/>
      <point x="288" y="0"/>
      <point x="328" y="106"/>
      <point x="339" y="157" type="curve"/>
      <point x="337" y="213" type="line"/>
      <point x="317" y="133"/>
      <point x="283" y="20"/>
      <point x="192" y="20" type="curve" smooth="yes"/>
      <point x="67" y="20"/>
      <point x="54" y="172"/>
      <point x="52" y="284" type="curve"/>
      <point x="106" y="482" type="line"/>
      <point x="168" y="501"/>
      <point x="237" y="501"/>
      <point x="293" y="482" type="curve"/>
      <point x="350" y="0" type="line"/>
      <point x="370" y="0" type="line"/>
    </contour>
    <contour>
      <point x="675" y="0" type="line"/>
      <point x="675" y="20" type="line"/>
      <point x="543" y="20" type="line"/>
      <point x="418" y="20"/>
      <point x="403" y="167"/>
      <point x="403" y="278" type="curve"/>
      <point x="425" y="483" type="line"/>
      <point x="543" y="483" type="line"/>
      <point x="668" y="483"/>
      <point x="691" y="340"/>
      <point x="691" y="278" type="curve"/>
      <point x="396" y="278" type="line"/>
      <point x="396" y="258" type="line"/>
      <point x="711" y="258" type="line"/>
      <point x="711" y="278" type="line"/>
      <point x="711" y="334"/>
      <point x="690" y="503"/>
      <point x="543" y="503" type="curve"/>
      <point x="409" y="503" type="line"/>
      <point x="383" y="278" type="line"/>
      <point x="383" y="171"/>
      <point x="396" y="0"/>
      <point x="543" y="0" type="curve"/>
    </contour>
  </outline>
</glyph>
<glyph name="divide" format="2">
  <advance width="300"/>
  <unicode hex="00F7"/>
  <outline>
    <component base="minus"/>
    <contour>
      <point x="169" y="127" type="line"/>
      <point x="169" y="167" type="line"/>
      <point x="129" y="167" type="line"/>
      <point x="129" y="127" type="line"/>
    </contour>
    <contour>
      <point x="169" y="297" type="line"/>
      <point x="169" y="337" type="line"/>
      <point x="129" y="337" type="line"/>
      <point x="129" y="297" type="line"/>
    </contour>
  </outline>
</glyph>
<glyph name="oslash" format="2">
  <advance width="426"/>
  <unicode hex="00F8"/>
  <outline>
    <component base="o"/>
    <contour>
      <point x="126.826" y="-99" type="line"/>
      <point x="266.174" y="601" type="line"/>
      <point x="287.174" y="601" type="line"/>
      <point x="147.826" y="-99" type="line"/>
    </contour>
  </outline>
</glyph>
<glyph name="jcircumflex" format="2">
  <advance width="203"/>
  <unicode hex="0135"/>
  <outline>
    <component base="circumflex" xOffset="37.6705" yOffset="-50"/>
    <contour>
      <point x="-100" y="-227" type="curve"/>
      <point x="-100" y="-207" type="line"/>
      <point x="-20" y="-234"/>
      <point x="83" y="-236"/>
      <point x="149" y="-211" type="curve"/>
      <point x="137.45" y="-47.65"/>
      <point x="125.55" y="120.65"/>
      <point x="114" y="284" type="curve"/>
      <point x="126.54" y="355.28"/>
      <point x="139.46" y="428.72"/>
      <point x="152" y="500" type="curve"/>
      <point x="173" y="500" type="line"/>
      <point x="160.13" y="428.72"/>
      <point x="146.87" y="355.28"/>
      <point x="134" y="284" type="curve"/>
      <point x="145.88" y="115.37"/>
      <point x="158.12" y="-58.37"/>
      <point x="170" y="-227" type="curve"/>
      <point x="86" y="-258"/>
      <point x="-10" y="-258"/>
    </contour>
  </outline>
</glyph>
<glyph name="circumflex" format="2">
  <advance width="237"/>
  <unicode hex="02C6"/>
  <outline>
    <contour>
      <point x="20.6591" y="625" type="line"/>
      <point x="44.6591" y="624.636" type="line"/>
      <point x="118.659" y="736" type="line"/>
      <point x="193" y="625" type="line"/>
      <point x="217" y="625" type="line"/>
      <point x="134" y="750" type="line"/>
      <point x="104" y="750" type="line"/>
    </contour>
  </outline>
</glyph>
<glyph name="caron" format="2">
  <advance width="237"/>
  <unicode hex="02C7"/>
  <outline>
    <contour>
      <point x="20.6591" y="749.636" type="line"/>
      <point x="104" y="624.636" type="line"/>
      <point x="134" y="624.636" type="line"/>
      <point x="217" y="749.636" type="line"/>
      <point x="193" y="749.636" type="line"/>
      <point x="118.659" y="638.636" type="line"/>
      <point x="44.6591" y="750" type="line"/>
    </contour>
  </outline>
</glyph>
<glyph name="emdash" format="2">
  <advance width="500"/>
  <unicode hex="2014"/>
  <outline>
    <contour>
      <point x="50" y="226" type="line"/>
      <point x="50" y="251" type="line"/>
      <point x="450" y="251" type="line"/>
      <point x="450" y="226" type="line"/>
    </contour>
  </outline>
</glyph>
<glyph name="quoteright" format="2">
  <advance width="150"/>
  <unicode hex="2019"/>
  <outline>
    <contour>
      <point x="100" y="650" type="line"/>
      <point x="100" y="700" type="line"/>
      <point x="70" y="700" type="line"/>
      <point x="70" y="650" type="line"/>
      <point x="50" y="575" type="line"/>
      <point x="80" y="575" type="line"/>
    </contour>
  </outline>
</glyph>
<glyph name="quotesinglbase" format="2">
  <advance width="150"/>
  <unicode hex="201A"/>
  <outline>
    <contour>
      <point x="100" y="0" type="line"/>
      <point x="100" y="50" type="line"/>
      <point x="70" y="50" type="line"/>
      <point x="70" y="0" type="line"/>
      <point x="50" y="-75" type="line"/>
      <point x="80" y="-75" type="line"/>
    </contour>
  </outline>
</glyph>
<glyph name="guilsinglright" format="2">
  <advance width="300"/>
  <unicode hex="203A"/>
  <outline>
    <contour>
      <point x="87" y="460" type="line"/>
      <point x="60" y="460" type="line"/>
      <point x="233" y="265.453" type="line"/>
      <point x="60" y="70" type="line"/>
      <point x="87" y="70" type="line"/>
      <point x="260" y="265.452" type="line"/>
    </contour>
  </outline>
</glyph>
<glyph name="Euro" format="2">
  <advance width="604"/>
  <unicode hex="20AC"/>
  <outline>
    <contour>
      <point x="45" y="250" type="line"/>
      <point x="45" y="270" type="line"/>
      <point x="445" y="270" type="line"/>
      <point x="445" y="250" type="line"/>
    </contour>
    <contour>
      <point x="45" y="381" type="line"/>
      <point x="45" y="401" type="line"/>
      <point x="445" y="401" type="line"/>
      <point x="445" y="381" type="line"/>
    </contour>
    <contour>
      <point x="544" y="0" type="line"/>
      <point x="359" y="0" type="line"/>
      <point x="139" y="0"/>
      <point x="121" y="239"/>
      <point x="121" y="389" type="curve"/>
      <point x="199" y="690" type="line"/>
      <point x="317" y="722"/>
      <point x="446" y="722"/>
      <point x="572" y="690" type="curve"/>
      <point x="572" y="669" type="line"/>
      <point x="446" y="702"/>
      <point x="309" y="701"/>
      <point x="216" y="674" type="curve"/>
      <point x="141" y="388" type="line"/>
      <point x="141" y="224"/>
      <point x="166" y="20"/>
      <point x="359" y="20" type="curve"/>
      <point x="544" y="20" type="line"/>
    </contour>
  </outline>
</glyph>
